<svg width="374" height="24" viewBox="0 0 374 24" fill="none" xmlns="http://www.w3.org/2000/svg">
<path fill-rule="evenodd" clip-rule="evenodd" d="M330.718 19.1481H324.912L328.205 9.02496L318.81 19.1481H313.595L319.042 2.33611H325.144L322.188 11.381L330.633 2.33611H336.228L330.718 19.1481ZM268.603 2.29617H274.662L274.071 4.03328C274.573 3.64072 275.126 3.31181 275.718 3.05491C278.23 1.87687 282.495 1.41764 283.34 4.61231C284.184 7.80699 282.094 12.9983 279.856 15.7737C277.871 18.1897 274.134 19.9268 270.988 18.4493C270.545 18.196 270.153 17.8717 269.827 17.4908L267.716 23.9401H261.572L268.603 2.29617ZM273.522 6.28952C273.783 5.99615 274.107 5.75805 274.472 5.59068C275.253 5.25125 276.816 4.41265 277.175 5.69052C277.341 6.25886 277.341 6.85928 277.175 7.42762C276.985 7.90682 275.19 14.0566 274.831 14.4559C274.472 14.8552 274.071 15.4542 273.691 15.6339C272.488 16.193 271.58 16.2928 270.651 15.3943L273.522 6.28952ZM294.635 13.3977L298.267 14.6755C297.45 15.7171 296.476 16.6389 295.374 17.411C292.991 18.9513 290.078 19.5792 287.225 19.1681C282.052 17.9301 281.946 13.9368 283.445 9.68386C284.59 6.6375 286.967 4.14554 290.054 2.75541C294.931 0.758735 300.99 1.33777 300.61 7.42762C300.507 8.2331 300.359 9.03288 300.167 9.82363C300.008 10.4663 299.789 11.0944 299.512 11.7005H289.104C288.825 12.2305 288.66 12.8072 288.618 13.3977C288.724 17.4709 292.946 15.6339 294.699 13.4576L294.635 13.3977ZM290.096 8.50582C290.453 7.60608 290.943 6.75898 291.553 5.99002C291.961 5.52749 292.534 5.22163 293.163 5.12974C293.793 5.03785 294.436 5.16624 294.973 5.49085C295.564 6.14975 295.226 7.78702 294.973 8.54576L290.096 8.50582ZM316.276 5.45092H309.52L305.15 19.1481H299.048L304.411 2.33611H317.269L316.276 5.45092ZM347.461 7.98669C347.583 7.44035 347.583 6.87579 347.461 6.32945C347.364 6.0211 347.167 5.74928 346.898 5.55228C346.629 5.35527 346.302 5.243 345.962 5.23128C345.581 5.20058 345.198 5.24313 344.835 5.35638C344.472 5.46962 344.137 5.65121 343.85 5.89018C343.339 6.30568 342.904 6.79817 342.562 7.34775C341.973 8.29538 341.492 9.29931 341.127 10.3428C340.726 11.4776 340.45 12.6485 340.303 13.8369C340.178 14.3897 340.178 14.9614 340.303 15.5141C340.401 15.815 340.596 16.0792 340.861 16.2692C341.127 16.4591 341.449 16.5652 341.781 16.5724C342.371 16.6295 342.964 16.5033 343.47 16.213C344.376 15.6892 345.108 14.935 345.582 14.0366C346.112 13.1101 346.537 12.1329 346.848 11.1215C347.147 10.095 347.352 9.04623 347.461 7.98669V7.98669ZM352.929 8.08652C352.885 9.76919 352.505 11.4288 351.81 12.9784C351.151 14.4152 350.213 15.7223 349.044 16.8319C347.793 18.0334 346.249 18.9249 344.547 19.4276C343.427 19.7651 342.26 19.9401 341.084 19.9468C339.74 19.9905 338.41 19.6794 337.242 19.0483C336.347 18.4605 335.644 17.6482 335.211 16.7027C334.778 15.7573 334.633 14.7163 334.793 13.6972C334.842 11.9916 335.236 10.3107 335.954 8.74542C336.617 7.28999 337.578 5.9734 338.783 4.87188C339.87 3.86289 341.163 3.0747 342.583 2.55574C343.933 2.0759 345.364 1.83233 346.806 1.83694C347.676 1.77159 348.55 1.88398 349.37 2.16649C350.19 2.44899 350.935 2.895 351.557 3.47421C352.609 4.75545 353.094 6.37368 352.908 7.98669L352.929 8.08652ZM9.12092 0H46.5547L45.1823 2.97504H20.2054L14.4837 15.4343H9.62764L15.3916 2.97504H7.74856L9.12092 0ZM20.1631 20.2862H0L1.35125 17.3311H16.5739L22.2956 5.01165H27.1094L24.0902 11.8003H28.5873C29.4123 11.8419 30.236 11.6991 30.9916 11.3834C31.7473 11.0677 32.4136 10.5881 32.9367 9.98336C33.4223 9.02496 32.3244 8.22629 30.4242 8.22629H27.4472L29.0518 4.95175H31.6699C37.1171 4.95175 40.3896 7.20799 38.9117 9.96339C37.5154 11.9344 35.4054 13.3546 32.9789 13.9567L36.9904 20.2263H30.4242L27.4472 15.4742H22.4012L20.1631 20.2862ZM198.042 2.31614H204.376L203.722 11.98L209.549 2.31614H214.426L202.075 19.6872C201.215 20.9308 200.059 21.9657 198.698 22.708C197.337 23.4503 195.81 23.8792 194.242 23.9601C193.292 23.9601 191.117 23.9601 191.117 23.9601L192.131 20.1664C192.944 20.2517 193.761 20.2983 194.58 20.3062C195.38 20.3119 196.17 20.1338 196.881 19.787C197.487 19.4334 197.932 18.8777 198.127 18.2296C198.464 17.4709 198.042 2.35607 198.042 2.35607V2.31614ZM166.372 8.52579C166.706 7.62171 167.175 6.76771 167.766 5.99002C168.171 5.529 168.739 5.22378 169.366 5.13185C169.992 5.03991 170.632 5.16759 171.165 5.49085C171.756 6.14975 171.418 7.78702 171.165 8.54576L166.372 8.52579ZM170.912 13.4176L174.543 14.6955C173.732 15.7532 172.757 16.6889 171.651 17.4709C169.274 19.008 166.369 19.6359 163.522 19.228C158.349 17.9701 158.223 13.9767 159.722 9.74376C160.288 8.23482 161.163 6.8462 162.297 5.65735C163.43 4.46849 164.801 3.50273 166.33 2.81531C171.207 0.818636 177.246 1.39767 176.887 7.48752C176.887 8.24626 176.507 9.48419 176.443 9.88353C176.274 10.5259 176.048 11.1537 175.768 11.7604H165.359C165.089 12.2923 164.932 12.8687 164.894 13.4576C164.937 17.4709 169.159 15.6339 170.912 13.4576V13.4176ZM241.388 12.6988L246.117 13.218C245.728 14.1442 245.209 15.0171 244.576 15.8136C243.616 16.8989 242.423 17.7787 241.076 18.3949C239.729 19.0111 238.259 19.3495 236.764 19.3877C225.405 19.208 230.134 7.00832 237.144 3.29451C238.965 2.41081 240.988 1.96506 243.035 1.99667C246.012 1.99667 248.44 3.53411 248.123 6.70882C248.123 7.52745 247.827 8.70549 247.827 8.70549H242.486C242.737 8.3132 242.909 7.87977 242.992 7.42762C242.992 6.80865 243.098 6.48918 242.739 6.10982C242.559 5.90402 242.333 5.73827 242.078 5.62439C241.822 5.5105 241.543 5.45127 241.261 5.45092C240.583 5.59542 239.957 5.90568 239.446 6.35068C238.935 6.79568 238.556 7.35982 238.347 7.98669C237.756 9.54409 236.236 12.9384 236.595 14.5358C236.701 15.0549 236.785 15.5141 237.186 15.6739C239.445 16.6522 240.839 14.3561 241.388 12.7188V12.6988ZM188.14 12.6988L192.869 13.218C192.466 14.1378 191.949 15.0091 191.328 15.8136C190.368 16.9112 189.17 17.8015 187.815 18.4249C186.46 19.0482 184.98 19.3901 183.474 19.4276C172.157 19.2479 176.887 7.04825 183.875 3.33444C185.698 2.43134 187.729 1.97159 189.787 1.99667C192.722 1.99667 195.15 3.53411 194.875 6.70882C194.809 7.38067 194.696 8.04768 194.537 8.70549H189.238C189.492 8.31604 189.657 7.88085 189.724 7.42762C189.724 6.80865 189.871 6.48918 189.491 6.10982C189.315 5.90555 189.092 5.74061 188.841 5.62673C188.589 5.51285 188.314 5.45282 188.035 5.45092C187.351 5.58843 186.719 5.89593 186.203 6.34169C185.687 6.78745 185.306 7.35531 185.1 7.98669C184.466 9.54409 182.988 12.9384 183.305 14.5358C183.411 15.0549 183.495 15.5141 183.939 15.6739C186.155 16.6522 187.591 14.3561 188.14 12.7188V12.6988ZM220.95 6.32945C221.184 6.01135 221.495 5.75112 221.858 5.57072C222.639 5.23128 224.202 4.39268 224.624 5.67055C224.768 6.24153 224.768 6.83667 224.624 7.40765C224.434 7.88686 222.639 14.0366 222.28 14.4359C221.967 14.8819 221.582 15.2793 221.14 15.614C220.692 15.9363 220.133 16.0901 219.571 16.0459C219.01 16.0016 218.486 15.7624 218.1 15.3744L220.95 6.32945ZM216.01 2.33611H222.09L221.499 4.07321C221.987 3.67278 222.535 3.34306 223.125 3.09484C225.701 1.91681 229.902 1.45757 230.747 4.65225C231.591 7.84692 229.543 13.0383 227.263 15.8136C225.278 18.2296 221.541 19.9667 218.395 18.4892C217.945 18.2378 217.545 17.9134 217.213 17.5308L215.102 23.98H208.852L216.01 2.33611ZM149.735 6.32945C149.989 6.01394 150.314 5.75496 150.685 5.57072C151.445 5.23128 153.029 4.39268 153.409 5.67055C153.57 6.23954 153.57 6.83866 153.409 7.40765C153.177 7.98669 151.361 13.9767 151.002 14.4559C150.643 14.9351 150.221 15.4542 149.862 15.6339C148.637 16.193 147.75 16.2928 146.821 15.3943L149.735 6.32945ZM144.837 2.33611H150.875L150.284 3.99334C150.815 3.61052 151.397 3.29503 152.015 3.05491C154.549 1.87687 158.793 1.41764 159.637 4.61231C160.482 7.80699 158.349 12.9983 156.069 15.7737C154.127 18.2097 150.347 19.9667 147.202 18.4493C146.752 18.1969 146.352 17.8726 146.019 17.4908L143.908 23.9401H137.658L144.837 2.33611ZM125.413 2.33611H131.747L129.91 7.70715L136.687 2.37604H142.367L136.033 7.08819L137.131 19.0682H130.628L130.226 11.3012L128.115 12.8186L126.004 19.0283H119.67L125.413 2.33611ZM112.956 11.1015L111.816 14.8752C111.386 15.1486 110.935 15.389 110.464 15.594C107.53 16.8719 107.572 13.797 109.261 12.2396C110.274 11.4197 111.582 10.9981 112.914 11.0616L112.956 11.1015ZM105.376 6.44925C105.922 5.69425 106.536 4.98604 107.213 4.33278C108.682 3.11449 110.48 2.30577 112.407 1.99667C114.666 1.53744 121.929 1.99667 120.852 6.28952C120.662 6.94842 117.453 16.2729 117.305 16.9717C117.157 17.6705 117.01 17.9102 117.01 18.2496C117.024 18.5241 117.089 18.7942 117.2 19.0483H110.612L111.013 17.5907C111.013 17.5907 110.127 18.1498 109.514 18.4892C106.39 20.1864 100.14 19.9068 101.555 15.0948C102.969 10.2829 107.466 8.86522 111.9 8.60566C112.808 8.60566 113.758 8.60566 113.758 8.60566C114.603 6.86855 114.413 5.97005 113.758 5.65058C113.104 5.33111 111.415 5.79035 110.38 7.48752L105.376 6.44925ZM93.2783 6.34942C93.5326 6.03391 93.8569 5.77493 94.2284 5.59068C94.9885 5.25125 96.572 4.41265 96.9731 5.69052C97.1175 6.2615 97.1175 6.85664 96.9731 7.42762C96.7198 7.98669 95.0096 13.9767 94.5662 14.4559C94.2501 14.8999 93.8659 15.297 93.4261 15.6339C92.9775 15.9562 92.4187 16.1101 91.8573 16.0658C91.296 16.0216 90.7718 15.7824 90.3858 15.3943L93.2783 6.34942ZM88.38 2.35607H94.4607L93.8695 3.99334C94.3581 3.59408 94.9058 3.26448 95.4952 3.01498C98.0288 1.83694 102.273 1.3777 103.117 4.57238C103.962 7.76706 101.914 12.9584 99.6334 15.7338C97.6487 18.2097 93.9117 19.9667 90.7869 18.4493C90.3381 18.1956 89.9383 17.8715 89.6046 17.4908L87.4933 23.9401H81.2226L88.38 2.35607ZM58.5681 2.35607H64.9021L64.2054 4.35275C65.8646 3.2646 67.7167 2.46662 69.6737 1.99667C71.785 1.71714 74.213 2.51581 73.7063 4.35275V4.55241H73.8964C75.6338 3.25862 77.6766 2.38174 79.8503 1.99667C81.3493 1.89684 84.4319 2.41597 83.5451 5.01165L78.7524 18.9884H72.5662L76.6833 6.84859C77.38 4.85191 73.453 5.85025 73.1363 6.70882L69.0192 19.1082H62.8119L66.929 6.82862C67.6679 4.69218 63.2342 6.26955 63.2553 7.00832L59.3071 19.1082H53.0998L58.5681 2.35607ZM356.814 2.33611H363.148L361.036 8.76539H365.512L367.624 2.33611H373.958L368.342 19.1082H362.008L364.393 11.98H359.939L357.574 19.0682H351.24L356.814 2.33611ZM252.62 9.44426H260.601L259.503 12.599H251.522L252.62 9.44426Z" fill="#1E4686"/>
</svg>
